<svg width="50" height="50" viewBox="0 0 50 50" fill="none" xmlns="http://www.w3.org/2000/svg">
<g clip-path="url(#clip0_587_1573)">
<path d="M46.2498 49.5802V49.1463H45.5442V48.6277H45.0468V48.2184H44.7222V47.714H44.246V47.273H43.7592V46.8955H43.3288V46.5427H42.976V46.1899H40.0338V45.8372H39.681C39.681 45.8372 39.8997 44.2002 39.3741 43.9215C39.3741 43.9215 39.1412 43.9215 39.3741 43.7522C39.6069 43.5829 38.8943 43.2125 38.8802 42.9055C38.866 42.5986 38.8802 42.8279 38.8802 42.8279L39.1412 42.4399L38.739 42.1929V41.4873L39.2047 41.0393C39.2047 41.0393 39.2964 40.9158 39.1095 40.7924C38.9225 40.6689 38.7567 40.7147 38.739 40.5772C38.7214 40.4396 38.231 36.1603 38.231 36.1603H37.4584C37.4584 36.1603 36.9786 40.436 36.9469 40.5772C36.9151 40.7183 36.7635 40.6689 36.5941 40.7924C36.4248 40.9158 36.5024 41.0393 36.5024 41.0393L36.9645 41.4873V42.1929L36.5659 42.4399L36.827 42.8279C36.827 42.8279 36.827 42.5951 36.827 42.9055C36.827 43.216 36.1002 43.6111 36.3331 43.7522C36.5659 43.8933 36.3331 43.9215 36.3331 43.9215C35.8074 44.2002 36.0226 45.8372 36.0226 45.8372H35.6698V46.1899H31.1366V42.0095H29.2386V36.1709H27.7816L25.7531 31.7787V13.2682C25.8307 12.9154 26.0106 12.3263 26.3458 12.1358C26.8397 11.8606 27.2418 10.1602 27.2101 9.84972C27.1783 9.53927 27.2101 8.7067 27.2101 8.7067H25.7531V7.05567C25.6172 6.8407 25.4118 6.67882 25.171 6.59705C25.1505 6.57072 25.1281 6.54596 25.104 6.52297C25.099 6.51374 25.0964 6.50344 25.0964 6.49298C25.0964 6.48252 25.099 6.47222 25.104 6.46299C25.104 6.40655 25.104 6.3501 25.104 6.29719C25.104 6.24427 25.104 6.13491 25.1251 6.05729C25.1342 5.99971 25.1484 5.94305 25.1675 5.88796C25.1735 5.8705 25.1818 5.8539 25.1922 5.83857C25.2283 5.78716 25.2579 5.73147 25.2803 5.67276C25.3138 5.5331 25.3245 5.38896 25.3121 5.24589C25.3103 5.21887 25.3103 5.19177 25.3121 5.16475C25.4225 5.22831 25.5092 5.32616 25.559 5.44345C25.559 5.47873 25.5943 5.51048 25.612 5.54576C25.6614 5.63395 25.7072 5.72568 25.7531 5.8174C25.7989 5.90912 25.7884 5.93382 25.813 5.98674C25.8189 5.99744 25.8269 6.00676 25.8367 6.01406C25.8464 6.02137 25.8576 6.02649 25.8695 6.02907C25.8695 6.02907 25.9012 6.01143 25.9224 6.00085C25.9436 5.99026 25.9753 6.02201 25.9859 6.00085C26.0211 5.93865 26.0366 5.86722 26.0303 5.79604C26.024 5.72485 25.9962 5.65726 25.9506 5.6022C25.9092 5.54856 25.8738 5.4906 25.8448 5.42934C25.8236 5.39406 25.8095 5.35173 25.7601 5.33409C25.7107 5.31645 25.7601 5.31645 25.7354 5.30234C25.7107 5.28822 25.7107 5.23883 25.7002 5.20708C25.6755 5.1083 25.7002 5.09419 25.7813 5.10125C25.8178 5.10567 25.8548 5.09808 25.8866 5.07962C25.9184 5.06116 25.9434 5.03284 25.9577 4.99894C25.993 4.92486 26.0212 4.85077 26.0494 4.77316C26.0547 4.75351 26.0547 4.73284 26.0494 4.71319C26.0221 4.56863 25.9534 4.43507 25.8519 4.32865C25.8272 4.30396 25.8095 4.30396 25.7884 4.32865C25.7884 4.32865 25.7884 4.31101 25.7672 4.31101C25.6578 4.28632 25.6261 4.1699 25.5414 4.11698C25.5104 4.09422 25.481 4.06947 25.4532 4.0429L25.5026 4.09934C25.4804 4.06659 25.4518 4.03873 25.4184 4.0175C25.385 3.99626 25.3476 3.98209 25.3086 3.97587C25.2783 3.96763 25.2512 3.95041 25.231 3.92648C25.1836 3.87479 25.1422 3.81799 25.1075 3.75714C25.0616 3.67953 24.9664 3.61603 25.0263 3.50667C25.0309 3.4585 25.0243 3.40995 25.0072 3.3647C24.9901 3.31946 24.9628 3.27872 24.9276 3.24561C24.9276 3.24561 24.9029 3.21386 24.9064 3.2068C24.9183 3.18723 24.9354 3.17135 24.9558 3.16094C24.9875 3.1433 25.0334 3.13977 25.0546 3.11508C25.0722 3.0982 25.0934 3.0856 25.1167 3.07826C25.1399 3.07092 25.1645 3.06903 25.1886 3.07274C25.2073 3.07628 25.2264 3.07628 25.2451 3.07274L25.5379 3.00572C25.5873 3.00572 25.6225 3.00572 25.6367 3.05158C25.6508 3.09744 25.6719 3.0798 25.6931 3.05158C25.7143 3.02335 25.6931 3.02335 25.7143 3.00924C25.7354 2.99513 25.7531 2.9528 25.7707 2.92105V2.96691C25.7707 3.04099 25.7707 3.11155 25.7707 3.18563C25.7707 3.20327 25.7707 3.22444 25.7954 3.24208L25.8236 3.20327C25.8907 3.17505 25.866 3.11861 25.866 3.06922C25.8607 3.01172 25.8607 2.95385 25.866 2.89635C25.8788 2.86345 25.8788 2.82695 25.866 2.79405C25.854 2.76459 25.8458 2.73378 25.8413 2.70232C25.8413 2.70232 25.8413 2.66704 25.8201 2.66704C25.7779 2.66177 25.7353 2.66177 25.6931 2.66704C25.6726 2.67252 25.6525 2.6796 25.6331 2.68821L25.612 2.73407L25.5873 2.69174C25.5763 2.73555 25.549 2.7735 25.511 2.79779C25.4729 2.82207 25.427 2.83083 25.3827 2.82227C25.3304 2.81597 25.2786 2.80655 25.2274 2.79405C25.2274 2.79405 25.2274 2.76935 25.2027 2.75877C25.2154 2.75494 25.2289 2.75494 25.2415 2.75877C25.3333 2.79052 25.3827 2.75877 25.365 2.65293C25.3567 2.60617 25.3412 2.56096 25.3192 2.51887C25.3123 2.50518 25.3088 2.49008 25.3088 2.47478C25.3088 2.45947 25.3123 2.44437 25.3192 2.43068C25.3298 2.40346 25.3298 2.37323 25.3192 2.34601C25.298 2.29662 25.3192 2.2684 25.3615 2.25429C25.4019 2.2405 25.4388 2.21781 25.4693 2.1879C25.4999 2.15798 25.5233 2.12159 25.5379 2.08142C25.543 2.07187 25.55 2.06348 25.5585 2.0568C25.567 2.05012 25.5768 2.04529 25.5873 2.04262C25.6199 2.03546 25.65 2.01952 25.6742 1.99651C25.6985 1.97351 25.716 1.94431 25.7249 1.91209C25.7466 1.85439 25.7713 1.79786 25.7989 1.74275C25.8381 1.72645 25.88 1.71806 25.9224 1.71806C26.0076 1.72686 26.0932 1.707 26.1658 1.66161C26.187 1.66161 26.2117 1.64397 26.2223 1.62633C26.2752 1.54166 26.2646 1.50991 26.1799 1.46052L26.3669 1.31941C26.3959 1.30104 26.4196 1.27544 26.4357 1.24513C26.4518 1.21482 26.4597 1.18084 26.4586 1.14655C26.4586 1.14655 26.4586 1.1148 26.4763 1.10774L26.5892 1.05835C26.6464 1.02883 26.7018 0.995845 26.755 0.959571C26.7652 0.951513 26.7731 0.940767 26.7776 0.928528C26.7821 0.916289 26.7831 0.903037 26.7806 0.890243C26.778 0.877449 26.772 0.865615 26.7631 0.856056C26.7542 0.846498 26.7429 0.839589 26.7303 0.836097C26.6799 0.830645 26.629 0.830645 26.5786 0.836097C26.5981 0.816582 26.6194 0.798871 26.6421 0.783179C26.7184 0.735739 26.7853 0.674765 26.8397 0.60326C26.8749 0.550342 26.9208 0.497425 26.8397 0.437452C26.8432 0.352784 26.8114 0.352784 26.7761 0.352784C26.7409 0.352784 26.6985 0.352783 26.688 0.416285L26.7232 0.388062C26.7088 0.399839 26.6935 0.410456 26.6774 0.419812L26.5398 0.47273C26.4763 0.497425 26.4093 0.511536 26.3458 0.532703C26.2833 0.569221 26.2171 0.598796 26.1482 0.620899C26.0917 0.620899 26.0388 0.659705 25.9859 0.677344C25.9448 0.696191 25.9005 0.70697 25.8554 0.709095C25.8059 0.714942 25.7573 0.726789 25.7107 0.744373L25.6261 0.769068L25.3509 0.829041C25.3509 0.829041 25.3509 0.829041 25.3262 0.829041H25.305L25.2662 0.860792C25.2341 0.884743 25.2035 0.910663 25.1745 0.938404C25.105 1.00793 25.0391 1.08093 24.977 1.15713C24.9422 1.2069 24.9182 1.26337 24.9064 1.32294C24.8986 1.36618 24.8791 1.40645 24.85 1.43936C24.7672 1.52274 24.7128 1.63017 24.6947 1.74628C24.6965 1.77767 24.6903 1.809 24.6767 1.83737C24.6632 1.86573 24.6427 1.89022 24.6171 1.90856C24.5783 1.92973 24.5395 1.965 24.5042 1.96148C24.4653 1.9563 24.4278 1.94294 24.3944 1.92226C24.3609 1.90159 24.3322 1.87408 24.3102 1.84153C24.2929 1.81791 24.2821 1.79013 24.279 1.761C24.2759 1.73188 24.2806 1.70245 24.2926 1.67572C24.3061 1.65659 24.3228 1.6399 24.3419 1.62633C24.3906 1.59132 24.4283 1.54325 24.4508 1.48769C24.4733 1.43213 24.4796 1.37134 24.4689 1.31235C24.4689 1.28766 24.4442 1.26296 24.4301 1.2418C24.416 1.22063 24.409 1.22063 24.4054 1.20652C24.4019 1.19241 24.3419 1.11832 24.3419 1.07599C24.3275 1.05191 24.3054 1.0333 24.2793 1.02309C24.2531 1.01288 24.2243 1.01163 24.1973 1.01954L24.035 1.05835C24.0527 1.01602 24.035 0.991322 23.9962 0.998377C23.972 1.00781 23.9494 1.0209 23.9292 1.03718C23.8869 1.06188 23.841 1.08305 23.7987 1.11127C23.784 1.12103 23.771 1.13292 23.7598 1.14655H23.7775L23.7281 1.26649C23.7143 1.27627 23.703 1.28922 23.6952 1.30426C23.6874 1.3193 23.6833 1.33599 23.6833 1.35292C23.6833 1.36986 23.6874 1.38655 23.6952 1.40159C23.703 1.41663 23.7143 1.42958 23.7281 1.43936C23.7372 1.44977 23.7444 1.46171 23.7493 1.47464C23.7807 1.56003 23.8389 1.63302 23.9151 1.68278C23.9286 1.69335 23.9397 1.70669 23.9476 1.7219C23.9555 1.73711 23.96 1.75385 23.9609 1.77097C23.9695 1.80609 23.9813 1.84034 23.9962 1.87328C23.9859 1.90565 23.9777 1.93865 23.9715 1.97206C23.9715 2.01439 23.9468 2.04967 23.8939 2.05673C23.841 2.06378 23.7704 2.08848 23.7069 2.10259C23.7016 2.10569 23.6955 2.10732 23.6893 2.10732C23.6831 2.10732 23.677 2.10569 23.6717 2.10259C23.6555 2.07768 23.6436 2.05026 23.6364 2.02145C23.6364 1.99675 23.6364 1.97912 23.6646 1.97206H23.7175C23.6928 1.89798 23.6293 1.88034 23.5693 1.86622C23.4932 1.85317 23.4243 1.81309 23.3753 1.75333C23.3259 1.69689 23.2695 1.6475 23.2201 1.59458C23.1938 1.56453 23.1713 1.53135 23.1531 1.4958C23.1178 1.41466 23.0825 1.33352 23.0508 1.24885C23.019 1.16419 23.0049 1.14655 22.9873 1.09363C22.9696 1.04071 22.9343 0.927821 22.9167 0.839625C22.911 0.823221 22.9094 0.805708 22.9118 0.788532C22.9143 0.771356 22.9208 0.75501 22.9308 0.740845C22.9626 0.719678 22.9837 0.709095 22.9661 0.677344C22.9879 0.664677 23.0081 0.649264 23.0261 0.631482C23.0403 0.61112 23.0532 0.589914 23.0649 0.567981C23.0717 0.556183 23.0753 0.542799 23.0753 0.529175C23.0753 0.515551 23.0717 0.502168 23.0649 0.490369C23.0649 0.448035 23.0649 0.405701 23.0472 0.363367V0.321033C23.0405 0.301599 23.0322 0.282725 23.0225 0.264588C23.0225 0.239893 22.9837 0.218726 22.9661 0.190503L22.9308 0.239893C22.9205 0.215387 22.9062 0.192743 22.8885 0.172864C22.8671 0.161341 22.8446 0.15189 22.8214 0.144641C22.814 0.161715 22.8081 0.179426 22.8038 0.197559C22.7086 0.151697 22.6521 0.155225 22.6415 0.197559L22.5569 0.172864V0.239893C22.511 0.222254 22.4863 0.264588 22.4475 0.306922L22.4052 0.225781L22.384 0.278699C22.3675 0.306404 22.3545 0.336023 22.3452 0.366895C22.3452 0.419812 22.317 0.47273 22.2605 0.493897C22.2041 0.515064 22.2605 0.52212 22.2605 0.536231C22.2886 0.614156 22.3331 0.685137 22.391 0.744373C22.4157 0.776124 22.4475 0.804346 22.4934 0.779652V0.825513C22.5463 0.825513 22.6027 0.857264 22.6521 0.825513C22.656 0.823642 22.6602 0.822669 22.6645 0.822669C22.6687 0.822669 22.673 0.823642 22.6768 0.825513C22.6931 0.845741 22.7062 0.868347 22.7156 0.892542C22.7332 0.980738 22.7438 1.06541 22.7579 1.15007C22.7626 1.18579 22.7697 1.22115 22.7791 1.25591L22.7474 1.23474C22.6521 1.15713 22.5569 1.07599 22.4581 1.00191C22.4349 0.986803 22.4146 0.967689 22.3981 0.94546H22.3734H22.3275C22.2782 0.913709 22.2323 0.874903 22.1829 0.84668C22.1184 0.802583 22.0513 0.762524 21.9818 0.726734L21.9465 0.705567C21.9267 0.698299 21.9078 0.688833 21.8901 0.677344C21.862 0.671277 21.8348 0.6618 21.809 0.649122C21.7455 0.610315 21.6925 0.546814 21.6149 0.560926V0.490369H21.5726C21.5408 0.490369 21.4915 0.490369 21.4773 0.455091C21.4494 0.421314 21.4128 0.395718 21.3715 0.381006C21.3634 0.382622 21.355 0.382622 21.3468 0.381006H21.3115L21.1669 0.268115L20.927 0.123474C20.8992 0.104759 20.8743 0.0821896 20.8529 0.0564454C20.8141 0 20.7647 0 20.733 0C20.7097 0.0295639 20.6951 0.0649624 20.6906 0.102307C20.684 0.165828 20.7003 0.22963 20.7365 0.282227C20.7788 0.345728 20.8317 0.402173 20.8776 0.458619C20.8557 0.487223 20.839 0.519466 20.8282 0.55387C20.8249 0.589573 20.8313 0.625509 20.8469 0.657826C20.8624 0.690144 20.8864 0.717623 20.9164 0.737318C20.9864 0.785158 21.0345 0.858708 21.0505 0.941932C21.0692 1.02113 21.1171 1.09038 21.1845 1.13596C21.2686 1.18013 21.3558 1.21787 21.4456 1.24885C21.4456 1.24885 21.4244 1.29119 21.4456 1.30883C21.4561 1.35394 21.4766 1.39613 21.5056 1.4323C21.5589 1.48274 21.6181 1.52656 21.682 1.56283C21.7875 1.62825 21.9108 1.65908 22.0347 1.65103C22.0347 1.78156 22.0347 1.78156 22.1123 1.85917C22.1406 1.88386 22.1653 1.90856 22.1547 1.94736C22.1504 1.95994 22.1504 1.97359 22.1547 1.98617C22.1822 2.03698 22.2262 2.07691 22.2794 2.09935C22.3326 2.1218 22.3919 2.12543 22.4475 2.10965C22.4863 2.10965 22.5039 2.10965 22.5145 2.14845C22.5176 2.18245 22.528 2.21539 22.545 2.245C22.562 2.2746 22.5852 2.30017 22.613 2.31995C22.6408 2.33973 22.6726 2.35325 22.7061 2.35958C22.7397 2.3659 22.7742 2.36488 22.8073 2.35659H22.8885C22.867 2.37853 22.8526 2.40632 22.8469 2.43645C22.8413 2.46659 22.8447 2.49772 22.8567 2.52593C22.8779 2.5801 22.9064 2.63113 22.9414 2.67763C22.964 2.7003 22.9778 2.73034 22.9802 2.76229C22.9793 2.78062 22.9828 2.79889 22.9905 2.81553C22.9983 2.83217 23.0099 2.84668 23.0245 2.85779C23.0391 2.86891 23.0562 2.87631 23.0743 2.87934C23.0924 2.88237 23.1109 2.88094 23.1284 2.87519L23.2024 2.85402C23.2005 2.88103 23.2005 2.90815 23.2024 2.93516C23.2033 2.94969 23.2077 2.9638 23.2153 2.97621C23.2229 2.98862 23.2335 2.99896 23.2461 3.0063C23.2586 3.01363 23.2728 3.01774 23.2874 3.01826C23.3019 3.01877 23.3164 3.01567 23.3295 3.00924C23.3647 3.00924 23.3718 3.00924 23.3859 3.04099C23.3984 3.08265 23.4215 3.12034 23.4529 3.15036C23.4607 3.15812 23.4702 3.16404 23.4805 3.1677C23.4909 3.17136 23.502 3.17267 23.5129 3.17152C23.5147 3.19736 23.5147 3.2233 23.5129 3.24914C23.4917 3.26678 23.4776 3.28794 23.46 3.30558C23.4423 3.32322 23.46 3.37261 23.4353 3.40436C23.4106 3.43611 23.3965 3.50314 23.3824 3.55606C23.3713 3.58279 23.3678 3.61204 23.3721 3.64064C23.3765 3.66924 23.3886 3.69611 23.4071 3.71834C23.4781 3.79324 23.5535 3.86392 23.6328 3.93001L23.5411 3.98998C23.5284 3.99701 23.5184 4.00822 23.5129 4.02173C23.481 4.08165 23.4629 4.14795 23.46 4.21576C23.4568 4.25382 23.4624 4.29211 23.4765 4.32761C23.4906 4.36311 23.5127 4.39487 23.5411 4.42038C23.5596 4.43535 23.5737 4.4551 23.5818 4.47749C23.5898 4.49987 23.5916 4.52404 23.587 4.54738C23.58 4.57994 23.58 4.6136 23.587 4.64616C23.587 4.7273 23.647 4.81197 23.5552 4.87547C23.587 4.92486 23.6187 4.87547 23.6575 4.87547V4.99894L23.6364 5.00247V5.0448L23.5658 5.02364C23.5607 5.04331 23.5607 5.06394 23.5658 5.08361C23.5847 5.12658 23.6071 5.16788 23.6328 5.20708C23.6459 5.22866 23.6613 5.24876 23.6787 5.26706C23.6958 5.28647 23.7147 5.30419 23.7352 5.31998C23.7591 5.33636 23.7853 5.34942 23.8128 5.35878C23.8516 5.35878 23.8128 5.39759 23.8128 5.41523C23.8128 5.43287 23.8128 5.43639 23.781 5.45403L23.9539 5.50695C23.9823 5.51749 24.0136 5.51749 24.0421 5.50695C24.0421 5.53165 24.0421 5.55987 24.0421 5.58809C24.0387 5.61621 24.0387 5.64464 24.0421 5.67276C24.0421 5.72568 24.0421 5.74684 23.9892 5.7539C24.0068 5.78212 24.028 5.80329 24.028 5.82446C24.028 5.84562 24.0668 5.88443 24.0915 5.89854C24.1196 5.9184 24.1524 5.93056 24.1867 5.93382C24.2334 5.93073 24.2795 5.92245 24.3243 5.90912C24.3561 5.90912 24.3631 5.90912 24.3702 5.93735C24.3806 5.9879 24.401 6.03588 24.4301 6.07846C24.4429 6.09979 24.4496 6.12417 24.4496 6.14902C24.4496 6.17386 24.4429 6.19824 24.4301 6.21957C24.4264 6.24058 24.4264 6.26207 24.4301 6.28307H24.4654C24.4589 6.3287 24.4589 6.37503 24.4654 6.42066L24.4019 6.44535C24.3976 6.45793 24.3976 6.47158 24.4019 6.48416C23.4388 6.50886 23.1672 7.06625 23.1672 7.06625V8.70317H21.7066C21.7066 8.70317 21.7384 9.53927 21.7066 9.84619C21.6749 10.1531 22.0806 11.8571 22.5745 12.1322C22.9096 12.3227 23.086 12.9083 23.1672 13.2647V31.306L20.927 36.1709H19.6923V42.0095H17.7908V46.2146H13.1481V45.5091H12.7953C12.7953 45.5091 13.0105 43.8722 12.4884 43.597C12.4884 43.597 12.2556 43.597 12.4884 43.4241C12.7213 43.2513 12.0086 42.8844 11.991 42.5774C11.9734 42.2705 11.991 42.4998 11.991 42.4998L12.2556 42.1118L11.8534 41.8648V41.1593L12.3473 40.7253C12.3473 40.7253 12.4426 40.6019 12.2556 40.4784C12.0686 40.3549 11.9028 40.4008 11.9028 40.2632C11.9028 40.1256 11.3948 35.8463 11.3948 35.8463H10.5834C10.5834 35.8463 10.1036 40.1221 10.0718 40.2632C10.0401 40.4043 9.8884 40.3549 9.71906 40.4784C9.54973 40.6019 9.62734 40.7253 9.62734 40.7253L10.0895 41.1734V41.8789L9.68731 42.1259L9.9519 42.5139C9.9519 42.5139 9.9519 42.2811 9.9519 42.5916C9.9519 42.902 9.22517 43.2971 9.458 43.4382C9.69084 43.5793 9.458 43.6111 9.458 43.6111C8.93236 43.8863 9.14755 45.5232 9.14755 45.5232H8.79477V46.2287H5.72555V46.5815H5.37277V46.9343H4.94943V47.273H4.48376V47.7175H4.01808V48.222H3.69705V48.6312H3.20668V49.1498H2.52581V49.5837H2.01074V50.0035H46.7719V49.5837L46.2498 49.5802ZM22.5957 0.63501H22.5674L22.578 0.571509C22.578 0.571509 22.6027 0.571509 22.5992 0.571509C22.5957 0.571509 22.5992 0.617371 22.5957 0.63501ZM22.7544 0.479786V0.455091C22.7544 0.455091 22.7544 0.476258 22.7544 0.483313C22.7544 0.490369 22.7332 0.557398 22.7086 0.589148C22.6839 0.620899 22.6839 0.589148 22.6733 0.589148C22.6714 0.578652 22.6714 0.567894 22.6733 0.557398L22.705 0.529175L22.5427 0.592676L22.5216 0.557398C22.5604 0.525647 22.5957 0.497425 22.6274 0.465674C22.6592 0.433924 22.6274 0.426868 22.6274 0.409229C22.6274 0.39159 22.578 0.352784 22.578 0.352784H22.6345C22.6345 0.433924 22.6556 0.462146 22.7332 0.448035C22.7732 0.449615 22.8125 0.457965 22.8497 0.47273L22.7544 0.479786Z" fill="#2C537F"/>
</g>
<defs>
<clipPath id="clip0_587_1573">
<rect width="50" height="50" fill="white"/>
</clipPath>
</defs>
</svg>
