<svg id="Capa_1" data-name="Capa 1" xmlns="http://www.w3.org/2000/svg" viewBox="0 0 141.73 141.73"><polygon points="74.71 1.53 74.71 1.53 74.71 1.53 74.71 1.53 74.71 1.53"/><path d="M131.1,140.54v-1.23h-2v-1.47h-1.41v-1.16h-.92v-1.43h-1.35V134h-1.38v-1.07h-1.22v-1h-1v-1h-8.34v-1h-1s.62-4.64-.87-5.43c0,0-.66,0,0-.48s-1.36-1.53-1.4-2.4,0-.22,0-.22l.74-1.1-1.14-.7v-2l1.32-1.27s.26-.35-.27-.7-1-.22-1.05-.61-1.44-12.52-1.44-12.52h-2.19s-1.36,12.12-1.45,12.52-.52.26-1,.61-.26.7-.26.7l1.31,1.27v2l-1.13.7.74,1.1s0-.66,0,.22-2.06,2-1.4,2.4,0,.48,0,.48c-1.49.79-.88,5.43-.88,5.43h-1v1H88.26V119.08H82.88V102.53H78.75L73,90.08V37.61c.22-1,.73-2.67,1.68-3.21,1.4-.78,2.54-5.6,2.45-6.48s0-3.24,0-3.24H73V20a3.15,3.15,0,0,0-1.65-1.3,1.9,1.9,0,0,0-.19-.21.18.18,0,0,1,0-.17c0-.16,0-.32,0-.47s0-.46.06-.68a2.81,2.81,0,0,1,.12-.48.61.61,0,0,1,.07-.14,2.15,2.15,0,0,0,.25-.47,3.79,3.79,0,0,0,.09-1.21,1.74,1.74,0,0,1,0-.23,1.66,1.66,0,0,1,.7.79c0,.1.1.19.15.29.14.25.27.51.4.77s.1.33.17.48a.24.24,0,0,0,.16.12s.09-.05.15-.08.15.06.18,0a1,1,0,0,0-.1-1.13,2.67,2.67,0,0,1-.3-.49c-.06-.1-.1-.22-.24-.27s0-.05-.07-.09-.07-.18-.1-.27c-.07-.28,0-.32.23-.3a.48.48,0,0,0,.5-.29c.1-.21.18-.42.26-.64a.33.33,0,0,0,0-.17,2.16,2.16,0,0,0-.56-1.09c-.07-.07-.12-.07-.18,0h0s0-.05-.06-.05c-.31-.07-.4-.4-.64-.55a2.52,2.52,0,0,1-.25-.21l0,0,.14.16h0l0,0a.82.82,0,0,0-.55-.35.44.44,0,0,1-.22-.14,2.68,2.68,0,0,1-.35-.48c-.13-.22-.4-.4-.23-.71v0a.9.9,0,0,0-.28-.74s-.07-.09-.06-.11a.35.35,0,0,1,.14-.13c.09-.05.22-.06.28-.13a.45.45,0,0,1,.38-.12.43.43,0,0,0,.16,0l.83-.19c.14,0,.24,0,.28.13s.1.08.16,0,0-.08.06-.12.11-.16.16-.25l0,0,0,.13c0,.21,0,.41,0,.62,0,.05,0,.11.07.16l.08-.11s0,0,0,0c.19-.08.12-.24.12-.38a2.67,2.67,0,0,1,0-.49.4.4,0,0,0,0-.29,1.11,1.11,0,0,1-.07-.26s0-.1-.06-.1a1.45,1.45,0,0,0-.36,0,1.15,1.15,0,0,0-.17.06v0l-.06.13-.07-.12a.5.5,0,0,1-.58.37s0,0,0,0a3.73,3.73,0,0,1-.44-.08s0-.07-.07-.1a.19.19,0,0,1,.11,0c.26.09.4,0,.35-.3a1.32,1.32,0,0,0-.13-.38.28.28,0,0,1,0-.25.33.33,0,0,0,0-.24c-.06-.14,0-.22.12-.26a.81.81,0,0,0,.5-.49.22.22,0,0,1,.14-.11.52.52,0,0,0,.39-.37,5,5,0,0,1,.21-.48.07.07,0,0,1,0,0,.91.91,0,0,1,.35-.07,1.09,1.09,0,0,0,.69-.16c.06,0,.13-.05.16-.1.15-.24.12-.33-.12-.47l.53-.4A.56.56,0,0,0,75,3.25s0-.09.05-.11L75.37,3a4.48,4.48,0,0,0,.47-.28.2.2,0,0,0-.07-.35,2,2,0,0,0-.43,0,1.3,1.3,0,0,1,.18-.15,2.09,2.09,0,0,0,.56-.51c.1-.15.23-.3,0-.47a.08.08,0,0,1,0,0C76.09,1,76,1,75.9,1s-.22,0-.25.18l.1-.08,0,0a1,1,0,0,1-.13.09l-.39.15c-.18.07-.37.11-.55.17h0a2.81,2.81,0,0,1-.56.25c-.16,0-.31.11-.46.16a1,1,0,0,1-.37.09,1.74,1.74,0,0,0-.41.1h0l0,0s-.07,0,0,0h0l0,0-.24.07-.78.17h0s0,0-.07,0l-.06,0h0l-.11.09a2.75,2.75,0,0,0-.26.22,8.24,8.24,0,0,0-.56.62,1.24,1.24,0,0,0-.2.47.68.68,0,0,1-.16.33,1.58,1.58,0,0,0-.44.87.53.53,0,0,1-.22.46c-.11.06-.22.16-.32.15a.79.79,0,0,1-.55-.34.47.47,0,0,1-.05-.47A.59.59,0,0,1,69,4.61a.9.9,0,0,0,.36-.89c0-.07-.07-.14-.11-.2s-.06-.06-.07-.1S69,3.17,69,3.05a.36.36,0,0,0-.41-.16L68.13,3c.05-.12,0-.19-.11-.17a.72.72,0,0,0-.19.11c-.12.07-.25.13-.37.21a.5.5,0,0,0-.11.1h.05l-.14.34h0a.3.3,0,0,0,0,.49.33.33,0,0,1,.06.1,1.2,1.2,0,0,0,.47.59.34.34,0,0,1,.13.25,1.66,1.66,0,0,0,.1.29h0a2.29,2.29,0,0,0-.07.28c0,.12-.07.22-.22.24s-.35.09-.53.13a.1.1,0,0,1-.1,0A.76.76,0,0,1,67,5.73c0-.07,0-.12.08-.14l.15,0c-.07-.21-.25-.26-.42-.3a.91.91,0,0,1-.55-.32c-.14-.16-.3-.3-.44-.45a1.38,1.38,0,0,1-.19-.28c-.1-.23-.2-.46-.29-.7s-.13-.29-.18-.44-.15-.47-.2-.72A.31.31,0,0,1,65,2.1c.09-.06.15-.09.1-.18a.84.84,0,0,0,.17-.13,1.74,1.74,0,0,0,.11-.18.22.22,0,0,0,0-.22c0-.12,0-.24-.05-.36l0-.12a1.11,1.11,0,0,0-.07-.16c0-.07-.11-.13-.16-.21L65,.68a.69.69,0,0,0-.12-.19,1.08,1.08,0,0,0-.19-.08.88.88,0,0,0-.05.15h0c-.27-.13-.43-.12-.46,0L63.94.49l0,.19c-.13-.05-.2.07-.31.19L63.51.64h0l-.06.15a1.12,1.12,0,0,0-.11.25c0,.15-.08.3-.24.36s0,.08,0,.12a1.64,1.64,0,0,0,.37.59c.07.09.16.17.29.1v.13c.15,0,.31.09.45,0a.08.08,0,0,1,.07,0,.72.72,0,0,1,.11.19c.05.25.08.49.12.73a2.26,2.26,0,0,0,.06.3l-.09-.06c-.27-.22-.54-.45-.82-.66a.66.66,0,0,1-.17-.16l-.07,0,0,0h0l-.13,0c-.14-.09-.27-.2-.41-.28a5.36,5.36,0,0,0-.57-.34l-.1-.06a.8.8,0,0,1-.16-.08h0a1,1,0,0,1-.23-.08c-.18-.11-.33-.29-.55-.25V1.39s0,0,0,0h0l0,0-.12,0c-.09,0-.23,0-.27-.1a.69.69,0,0,0-.3-.21.18.18,0,0,1-.07,0l0,0-.1,0h0L60,.76,59.32.35a1,1,0,0,1-.21-.19C59,0,58.86,0,58.77,0a.58.58,0,0,0-.12.29.76.76,0,0,0,.13.51c.12.18.27.34.4.5a.87.87,0,0,0-.14.27.56.56,0,0,0,.25.52.91.91,0,0,1,.38.58.92.92,0,0,0,.38.55,5.33,5.33,0,0,0,.74.32s-.06.12,0,.17a.88.88,0,0,0,.17.35,2.59,2.59,0,0,0,.5.37,1.69,1.69,0,0,0,1,.25c0,.37,0,.37.22.59.08.07.15.14.12.25a.17.17,0,0,0,0,.11.72.72,0,0,0,.83.35c.11,0,.16,0,.19.11a.67.67,0,0,0,.83.59h.23a.44.44,0,0,0-.09.48,1.82,1.82,0,0,0,.24.43.38.38,0,0,1,.11.24.32.32,0,0,0,.42.32l.21-.06a1.57,1.57,0,0,0,0,.23.25.25,0,0,0,.36.21c.1,0,.12,0,.16.09a.71.71,0,0,0,.19.31.21.21,0,0,0,.17.06,1.61,1.61,0,0,1,0,.22c-.06.05-.1.11-.15.16s0,.19-.07.28-.11.28-.15.43a.45.45,0,0,0,.07.46,7.5,7.5,0,0,0,.64.6l-.26.17a.18.18,0,0,0-.08.09,1.29,1.29,0,0,0-.15.55.7.7,0,0,0,.23.58.37.37,0,0,1,.13.36.67.67,0,0,0,0,.28c0,.23.17.47-.09.65a0,0,0,0,1,0,0c.09.14.18,0,.29,0l0,.35L67,14.18l0,.12-.2-.06a.34.34,0,0,0,0,.17,2.37,2.37,0,0,0,.19.35,1,1,0,0,0,.13.17,1.14,1.14,0,0,0,.16.15.91.91,0,0,0,.22.11c.11,0,0,.11,0,.16s0,.06-.09.11l.49.15a.36.36,0,0,0,.25,0c0,.07,0,.15,0,.23a1,1,0,0,0,0,.24c0,.15,0,.21-.15.23H68c.05.08.11.14.11.2s.11.17.18.21a.56.56,0,0,0,.27.1,1.78,1.78,0,0,0,.39-.07c.09,0,.11,0,.13.08a1.1,1.1,0,0,0,.17.4.39.39,0,0,1,0,.4.52.52,0,0,0,0,.18l.1,0a1.37,1.37,0,0,0,0,.39h0l-.18.07a.17.17,0,0,0,0,.11h0c-2.73.07-3.5,1.65-3.5,1.65v4.64H61.53s.09,2.37,0,3.24,1.06,5.7,2.46,6.48c.95.54,1.45,2.2,1.68,3.21V88.74l-6.35,13.79h-3.5v16.55H50.43V131H37.27v-2h-1s.61-4.64-.87-5.42c0,0-.66,0,0-.49s-1.36-1.53-1.41-2.4,0-.22,0-.22l.75-1.1-1.14-.7v-2L35,115.44s.27-.35-.26-.7-1-.22-1-.61-1.44-12.52-1.44-12.52H30s-1.36,12.12-1.45,12.52-.52.26-1,.61-.26.7-.26.7l1.31,1.27v2l-1.14.7.75,1.1s0-.66,0,.22-2.06,2-1.4,2.4,0,.49,0,.49c-1.49.78-.88,5.42-.88,5.42h-1v2h-8.7v1h-1v1h-1.2V134H12.71v1.26H11.39v1.43h-.91v1.16H9.09v1.47H7.16v1.23H5.7v1.19H132.58v-1.19ZM67.26,3.73h0l0,0,0,0ZM64.05,1.8l-.08,0L64,1.62s.07,0,.06,0S64.06,1.75,64.05,1.8Zm.45-.44,0-.07s0,.06,0,.08-.06.21-.13.3-.07,0-.1,0a.25.25,0,0,1,0-.09l.09-.08,0,0-.46.18-.06-.1c.11-.09.21-.17.3-.26s0-.11,0-.16S64,1,64,1l.16,0c0,.23.06.31.28.27a1,1,0,0,1,.33.07s0,0,0,0Z"/></svg>