<svg width="60" height="60" viewBox="0 0 60 60" fill="none" xmlns="http://www.w3.org/2000/svg">
<path d="M46.4534 51.1183V16.3113L43.8541 14.9608L41.259 16.3113V49.2641L40.3446 49.0651V7.26875L37.2161 5.19015L35.1375 7.26875V48.3327C34.8835 48.3073 34.6295 48.2862 34.3713 48.2692V24.3632L31.2809 21.2982L28.1905 24.3632V48.1211C27.8307 48.1211 27.4751 48.1211 27.1195 48.1592V1.75686L24.554 0L21.9462 1.75686V48.6587C21.3705 48.7476 20.8117 48.8408 20.2529 48.9424V17.4797L16.9678 15.8795L15.0585 17.4797V50.3986C12.5735 51.4062 11.0918 52.672 11.0918 54.0478C11.0918 57.3372 19.5586 60 29.9855 60C40.4123 60 48.8792 57.3372 48.8792 54.0478C48.8961 52.981 48.0028 51.9862 46.4534 51.1183Z" fill="#2C537F"/>
</svg>
