<svg width="21" height="21" viewBox="0 0 21 21" fill="none" xmlns="http://www.w3.org/2000/svg">
<path d="M10.5692 5.67788C8.0893 5.67788 6.089 7.67818 6.089 10.1581C6.089 12.638 8.0893 14.6383 10.5692 14.6383C13.0491 14.6383 15.0494 12.638 15.0494 10.1581C15.0494 7.67818 13.0491 5.67788 10.5692 5.67788ZM10.5692 13.0708C8.96663 13.0708 7.65649 11.7646 7.65649 10.1581C7.65649 8.55161 8.96273 7.24537 10.5692 7.24537C12.1757 7.24537 13.4819 8.55161 13.4819 10.1581C13.4819 11.7646 12.1718 13.0708 10.5692 13.0708ZM16.2777 5.49461C16.2777 6.0756 15.8098 6.53961 15.2327 6.53961C14.6517 6.53961 14.1877 6.0717 14.1877 5.49461C14.1877 4.91753 14.6556 4.44962 15.2327 4.44962C15.8098 4.44962 16.2777 4.91753 16.2777 5.49461ZM19.245 6.5552C19.1787 5.15538 18.859 3.91543 17.8335 2.89383C16.8119 1.87223 15.5719 1.5525 14.1721 1.48231C12.7294 1.40043 8.40514 1.40043 6.96243 1.48231C5.56651 1.5486 4.32655 1.86833 3.30106 2.88993C2.27556 3.91153 1.95972 5.15148 1.88954 6.5513C1.80765 7.99402 1.80765 12.3183 1.88954 13.761C1.95582 15.1608 2.27556 16.4007 3.30106 17.4223C4.32655 18.4439 5.56261 18.7637 6.96243 18.8339C8.40514 18.9157 12.7294 18.9157 14.1721 18.8339C15.5719 18.7676 16.8119 18.4478 17.8335 17.4223C18.8551 16.4007 19.1748 15.1608 19.245 13.761C19.3269 12.3183 19.3269 7.99792 19.245 6.5552ZM17.3812 15.309C17.077 16.0732 16.4882 16.662 15.7201 16.97C14.5698 17.4262 11.8404 17.321 10.5692 17.321C9.29806 17.321 6.56471 17.4223 5.41834 16.97C4.65409 16.6659 4.06531 16.0771 3.75727 15.309C3.30106 14.1587 3.40634 11.4292 3.40634 10.1581C3.40634 8.88694 3.30496 6.15358 3.75727 5.00721C4.06141 4.24296 4.65019 3.65418 5.41834 3.34614C6.56861 2.88993 9.29806 2.99521 10.5692 2.99521C11.8404 2.99521 14.5737 2.89383 15.7201 3.34614C16.4843 3.65028 17.0731 4.23906 17.3812 5.00721C17.8374 6.15748 17.7321 8.88694 17.7321 10.1581C17.7321 11.4292 17.8374 14.1626 17.3812 15.309Z" fill="#00B5E5"/>
</svg>
