<svg width="21" height="21" viewBox="0 0 21 21" fill="none" xmlns="http://www.w3.org/2000/svg">
<g clip-path="url(#clip0_267_79)">
<path d="M5.7412 17.6486H2.1196V5.98598H5.7412V17.6486ZM3.92845 4.39509C2.77038 4.39509 1.83105 3.43588 1.83105 2.27781C1.83105 1.72155 2.05203 1.18807 2.44537 0.794732C2.8387 0.401395 3.37218 0.18042 3.92845 0.18042C4.48471 0.18042 5.01819 0.401395 5.41153 0.794732C5.80487 1.18807 6.02584 1.72155 6.02584 2.27781C6.02584 3.43588 5.08613 4.39509 3.92845 4.39509ZM19.2957 17.6486H15.6819V11.9713C15.6819 10.6183 15.6546 8.8831 13.7989 8.8831C11.916 8.8831 11.6275 10.3531 11.6275 11.8738V17.6486H8.00977V5.98598H11.4832V7.57686H11.5339C12.0174 6.66054 13.1985 5.69353 14.9605 5.69353C18.6258 5.69353 19.2996 8.10715 19.2996 11.2421V17.6486H19.2957Z" fill="#00B5E5"/>
</g>
<defs>
<clipPath id="clip0_267_79">
<rect width="19.964" height="19.964" fill="white" transform="translate(0.583008 0.179932)"/>
</clipPath>
</defs>
</svg>
