<svg width="17" height="17" viewBox="0 0 17 17" fill="none" xmlns="http://www.w3.org/2000/svg">
<g clip-path="url(#clip0_312_2246)">
<path d="M16.5149 12.0126L12.7962 10.4188C12.6373 10.3511 12.4607 10.3369 12.2931 10.3782C12.1254 10.4195 11.9757 10.5142 11.8665 10.6479L10.2196 12.6601C7.63497 11.4414 5.55495 9.36141 4.33633 6.77679L6.34844 5.12991C6.48247 5.0209 6.57734 4.87119 6.61868 4.70344C6.66002 4.53569 6.64557 4.35904 6.57754 4.20023L4.98379 0.481476C4.90912 0.310284 4.77706 0.170511 4.61037 0.086259C4.44369 0.00200718 4.25283 -0.0214427 4.0707 0.0199528L0.617578 0.816828C0.44199 0.857375 0.285329 0.956241 0.173166 1.09729C0.0610025 1.23834 -4.04484e-05 1.41324 2.01085e-08 1.59345C2.01085e-08 10.1101 6.90293 16.9997 15.4063 16.9997C15.5865 16.9998 15.7615 16.9388 15.9026 16.8266C16.0437 16.7145 16.1426 16.5578 16.1832 16.3821L16.9801 12.929C17.0212 12.746 16.9973 12.5544 16.9124 12.3871C16.8275 12.2198 16.6869 12.0874 16.5149 12.0126Z" fill="white"/>
</g>
<defs>
<clipPath id="clip0_312_2246">
<rect width="17" height="17" fill="white"/>
</clipPath>
</defs>
</svg>
