<svg width="46" height="46" viewBox="0 0 46 46" fill="none" xmlns="http://www.w3.org/2000/svg">
<g clip-path="url(#clip0_587_1661)">
<path d="M45.3747 39.7702L36.4164 30.8137C36.0121 30.4094 35.464 30.1848 34.889 30.1848H33.4246C35.9043 27.0133 37.3777 23.0252 37.3777 18.6857C37.3777 8.36355 29.0123 0 18.6893 0C8.36625 0 0 8.36355 0 18.6857C0 29.0079 8.36535 37.3714 18.6893 37.3714C23.0288 37.3714 27.0187 35.898 30.1902 33.4183V34.8827C30.1902 35.4577 30.4148 36.0058 30.8191 36.4101L39.7774 45.3666C40.622 46.2111 41.9876 46.2111 42.8231 45.3666L45.3657 42.824C46.2102 41.9795 46.2102 40.6148 45.3747 39.7702ZM18.6893 31.6214C11.5431 31.6214 5.7518 25.8409 5.7518 18.6857C5.7518 11.5404 11.5332 5.75 18.6893 5.75C25.8355 5.75 31.6268 11.5305 31.6268 18.6857C31.6268 25.831 25.8454 31.6214 18.6893 31.6214ZM18.6911 10.0625C15.0273 10.0625 12.057 13.0318 12.057 16.6957C12.057 19.6569 16.3929 25.0556 18.0541 27.0151C18.132 27.1083 18.2294 27.1833 18.3395 27.2348C18.4496 27.2862 18.5696 27.3129 18.6911 27.3129C18.8126 27.3129 18.9326 27.2862 19.0427 27.2348C19.1527 27.1833 19.2502 27.1083 19.3281 27.0151C20.9893 25.0556 25.3252 19.6578 25.3252 16.6957C25.3252 13.0318 22.3549 10.0625 18.6911 10.0625ZM18.6911 18.6875C17.4998 18.6875 16.5348 17.7217 16.5348 16.5312C16.5348 15.3399 17.5007 14.375 18.6911 14.375C19.8815 14.375 20.8473 15.3399 20.8473 16.5312C20.8473 17.7217 19.8815 18.6875 18.6911 18.6875Z" fill="white"/>
</g>
<defs>
<clipPath id="clip0_587_1661">
<rect width="46" height="46" fill="white"/>
</clipPath>
</defs>
</svg>
