<svg id="Capa_1" data-name="Capa 1" xmlns="http://www.w3.org/2000/svg" viewBox="0 0 141.73 141.73"><path d="M126,113.9h-4.38v18.21H126Z"/><path d="M4.21,109.21V136.8H2v4.57H139.72v-4.53l-2.09-.11V100.09l2.1-.15V95.39h-5.61V47.23l2.14-.12V42.55h-4.51c0-6,0-11.8,0-17.62a3.08,3.08,0,0,0-1.19-2.78,2.91,2.91,0,0,1-1.2-2.78c.11-1.43,0-2.87,0-4.3a6.71,6.71,0,0,0-3.81-6.18,8.83,8.83,0,0,0-2.42-.51V5.27h2V4h-2V2.36H122V4h-2V5.27h2V8.38a6.38,6.38,0,0,0-3.67,1.41,6.72,6.72,0,0,0-2.62,5.31c0,1.52-.07,3,0,4.57a2.41,2.41,0,0,1-1,2.33,3.38,3.38,0,0,0-1.31,3.14c.06,5.29,0,10.59,0,15.88v1.56h-4.51v4.58H111V79.29h-9v.11h-1.13V65.66l2.1-.2V61.05l-2.2-.16V49.65H96.25c0,.77-.08,1.42-.12,2H89.36v-4.4l2.18-.15V42.57H80V33.39H73.3V26.48h4.42V21.92H73.2V17.4H68.59V22H64.13v4.61H68.5v6.9H61.71v9.19H50.33v4.48l2.13.12v4.42H45.68c0-.76-.08-1.41-.12-2.08H41V60.91l-2.16.14V65.5l2.07.15V79.31H32V47.18h2.1V42.61H29.55V41c0-5.29,0-10.58,0-15.87A3.39,3.39,0,0,0,28.27,22a2.4,2.4,0,0,1-1-2.32c.08-1.52,0-3.05,0-4.58a6.78,6.78,0,0,0-2.62-5.31A6.48,6.48,0,0,0,21,8.4V5.29h2V4.06H21V2.38H19.75V4.06h-2V5.29h2V8.4a8.92,8.92,0,0,0-2.42.52,6.69,6.69,0,0,0-3.81,6.17c0,1.44-.09,2.88,0,4.3a3,3,0,0,1-1.2,2.79A3.07,3.07,0,0,0,11.15,25c.06,5.82,0,11.64,0,17.61H6.67v4.57l2.14.11v48.1H2v4.58l2.2.17v9.11ZM22.59,78.08v6.73H18.17V78.08Zm0-20.83h-4.4v-6.7h4.4ZM18.23,14.41a1.91,1.91,0,0,1,2.16-1.62c1.07,0,2,.49,2.13,1.65.14,1.67,0,3.37,0,5.18H18.19C18.19,17.86,18.07,16.12,18.23,14.41Zm-.08,50h4.42V71H18.15ZM48,135.62c0,.35-.05.69-.08,1.1H41.15c0-.32-.1-.65-.1-1,0-7.53,0-15,0-22.58a4.76,4.76,0,0,1,1.11-2.87,3.29,3.29,0,0,1,5.6,1.57,6,6,0,0,1,.16,1.47Q48,124.47,48,135.62Zm32,1.1H61.82V102.44H80Zm4.58-57.44H57.22c0-.4-.06-.71-.06-1,0-2.93.49-3.48,3.39-3.48q10.1,0,20.18,0C84.4,74.78,85,75.46,84.57,79.28Zm16.17,57.24s0,.07-.12.19H93.93c0-.48-.06-.91-.06-1.35q0-11,0-21.9a5.71,5.71,0,0,1,.33-2.1,3.39,3.39,0,0,1,3.83-2,3.55,3.55,0,0,1,2.72,3.28C100.78,120.58,100.75,128.55,100.74,136.52Zm24-65.46h-4.42V64.38h4.42Zm-4.42-13.79v-6.7h4.4v6.7Zm0-42.83c.09-1.16,1.06-1.64,2.13-1.65a1.91,1.91,0,0,1,2.16,1.62c.16,1.71,0,3.45,0,5.21h-4.37C120.37,17.81,120.27,16.11,120.41,14.44Zm-.08,63.66h4.43v6.72h-4.43Z"/><path d="M20.26,113.92H15.84V132.1h4.42Z"/></svg>