<svg width="47" height="47" viewBox="0 0 47 47" fill="none" xmlns="http://www.w3.org/2000/svg">
<g clip-path="url(#clip0_587_1655)">
<path d="M41.7835 37.7715H40.3311V43.8102H41.7835V37.7715Z" fill="#2C537F"/>
<path d="M1.39596 36.2154V45.3647H0.663086V46.8802H46.3333V45.378L45.6402 45.3415V33.1911L46.3366 33.1414V31.6325H44.4762V15.6619L45.1859 15.6221V14.1099H43.6903C43.6903 12.1202 43.6903 10.1968 43.6903 8.26681C43.7094 8.09218 43.683 7.91559 43.6139 7.7541C43.5448 7.59261 43.4352 7.45167 43.2957 7.34491C43.1511 7.24256 43.0376 7.10241 42.9674 6.9398C42.8972 6.77719 42.8731 6.59841 42.8977 6.42302C42.9342 5.94881 42.8977 5.47128 42.8977 4.99707C42.9059 4.57027 42.7911 4.15012 42.5671 3.78674C42.3431 3.42337 42.0193 3.1321 41.6343 2.94768C41.376 2.85394 41.1059 2.79701 40.8318 2.77856V1.74723H41.495V1.32608H40.8318V0.782227H40.457V1.32608H39.7938V1.74723H40.457V2.77856C40.0123 2.80242 39.5864 2.96605 39.24 3.24614C38.9703 3.4538 38.7518 3.72049 38.6012 4.02573C38.4506 4.33096 38.3719 4.66665 38.3712 5.00702C38.3712 5.51108 38.348 6.00187 38.3712 6.52251C38.3932 6.66939 38.3738 6.81949 38.3152 6.95597C38.2566 7.09246 38.1612 7.20991 38.0396 7.29517C37.8815 7.41483 37.7581 7.57424 37.6818 7.75716C37.6055 7.94009 37.579 8.13997 37.6051 8.33645C37.625 10.0907 37.6051 11.8483 37.6051 13.6025V14.1198H36.1096V15.6386H36.8093V26.2935H33.8247V26.33H33.45V21.7735L34.1464 21.7072V20.2448L33.4168 20.1917V16.4644H31.9179C31.9179 16.7197 31.8914 16.9353 31.8781 17.1276H29.6331V15.6685L30.356 15.6187V14.1165H26.5292V11.0723H24.3073V8.78081H25.7731V7.26864H24.2742V5.76974H22.7454V7.29517H21.2664V8.82392H22.7156V11.1121H20.4639V14.1596H16.6901V15.6453L17.3964 15.6851V17.1508H15.1481C15.1481 16.8988 15.1216 16.6832 15.1083 16.461H13.5961V20.1984L12.8798 20.2448V21.7205L13.5663 21.7702V26.3001H10.6116V15.6453H11.308V14.1298H9.79912V13.5959C9.79912 11.8416 9.79912 10.0874 9.79912 8.33313C9.8254 8.1381 9.80003 7.93959 9.72554 7.75745C9.65106 7.5753 9.53006 7.41589 9.37465 7.29517C9.25331 7.21045 9.158 7.09357 9.09942 6.95766C9.04084 6.82176 9.02131 6.67221 9.04303 6.52582C9.06956 6.02177 9.04303 5.51439 9.04303 5.00702C9.04083 4.66691 8.96149 4.33173 8.811 4.02672C8.6605 3.72171 8.44277 3.45482 8.1742 3.24614C7.82774 2.97166 7.40507 2.8107 6.9638 2.78519V1.75386H7.62703V1.34597H6.9638V0.788859H6.54928V1.34597H5.88604V1.75386H6.54928V2.78519C6.27506 2.80509 6.00495 2.86313 5.74676 2.95763C5.36178 3.14115 5.03785 3.43175 4.81377 3.79463C4.58969 4.15751 4.47495 4.57729 4.48331 5.0037C4.48331 5.48123 4.45346 5.95876 4.48331 6.42965C4.5053 6.60533 4.48002 6.78369 4.41007 6.94634C4.34011 7.10898 4.22802 7.25001 4.08537 7.35486C3.94474 7.46335 3.83494 7.60674 3.76688 7.77079C3.69882 7.93484 3.67485 8.11384 3.69738 8.29002C3.71727 10.22 3.69738 12.15 3.69738 14.1298H2.21173V15.6453L2.92139 15.6818V31.6325H0.663086V33.1513L1.39264 33.2077V36.2287L1.39596 36.2154ZM7.49107 25.8922V28.124H6.02532V25.8922H7.49107ZM7.49107 18.9846H6.03195V16.7628H7.49107V18.9846ZM6.04522 4.7782C6.06903 4.61201 6.15786 4.46207 6.29217 4.36134C6.42648 4.2606 6.5953 4.21731 6.76151 4.24099C7.11634 4.24099 7.42474 4.40348 7.46785 4.78815C7.51428 5.34195 7.46785 5.9057 7.46785 6.50593H6.03195C6.03195 5.92228 5.99216 5.34527 6.04522 4.7782ZM6.01869 21.359H7.48443V23.5444H6.01869V21.359ZM15.9174 44.9734C15.9174 45.0895 15.9009 45.2022 15.8909 45.3382H13.6459C13.6459 45.2321 13.6127 45.1227 13.6127 45.0066C13.6127 42.5095 13.6127 40.0323 13.6127 37.5187C13.6266 37.1694 13.7561 36.8347 13.9808 36.5669C14.1174 36.4232 14.2907 36.3194 14.4819 36.2667C14.6731 36.2141 14.8751 36.2146 15.0661 36.2681C15.2571 36.3216 15.4298 36.4262 15.5658 36.5706C15.7018 36.715 15.7958 36.8937 15.8378 37.0876C15.8756 37.2473 15.8934 37.411 15.8909 37.5751C15.9086 40.0423 15.9174 42.5084 15.9174 44.9734ZM26.5292 45.3382H20.5004V33.9704H26.5292V45.3382ZM28.048 26.2902H18.9749C18.9749 26.1575 18.955 26.0547 18.955 25.9585C18.955 24.9869 19.1175 24.8045 20.0792 24.8045C22.3121 24.8045 24.5428 24.8045 26.7712 24.8045C27.9883 24.7979 28.1872 25.0234 28.0446 26.2902H28.048ZM33.4102 45.2719C33.4102 45.2719 33.4102 45.2951 33.3704 45.3349H31.1486C31.1486 45.1757 31.1287 45.0331 31.1287 44.8872C31.1287 42.4553 31.1287 40.0345 31.1287 37.6248C31.1212 37.3879 31.1584 37.1516 31.2381 36.9284C31.3396 36.6874 31.522 36.4893 31.7538 36.3682C31.9856 36.2472 32.2524 36.2107 32.5082 36.2652C32.756 36.3244 32.9779 36.4625 33.1405 36.6586C33.3032 36.8548 33.3978 37.0984 33.4102 37.3529C33.4201 39.9859 33.4102 42.6289 33.4069 45.2719H33.4102ZM41.369 23.5643H39.9032V21.3491H41.369V23.5643ZM39.9032 18.9913V16.7695H41.3624V18.9913H39.9032ZM39.9032 4.78815C39.9331 4.40348 40.2548 4.2443 40.6096 4.24099C40.7758 4.21731 40.9446 4.2606 41.0789 4.36134C41.2132 4.46207 41.3021 4.61201 41.3259 4.7782C41.3789 5.34527 41.3259 5.92228 41.3259 6.50593H39.8767C39.9165 5.9057 39.8833 5.34195 39.9298 4.78815H39.9032ZM39.8767 25.8988H41.3458V28.1273H39.8767V25.8988Z" fill="#2C537F"/>
<path d="M6.71867 37.7773H5.25293V43.8061H6.71867V37.7773Z" fill="#2C537F"/>
</g>
<defs>
<clipPath id="clip0_587_1655">
<rect width="47" height="47" fill="white"/>
</clipPath>
</defs>
</svg>
