<svg width="21" height="21" viewBox="0 0 21 21" fill="none" xmlns="http://www.w3.org/2000/svg">
<g clip-path="url(#clip0_267_75)">
<path d="M19.2306 5.99262C19.0129 5.17292 18.3715 4.52734 17.5571 4.30826C16.0809 3.91016 10.1617 3.91016 10.1617 3.91016C10.1617 3.91016 4.24251 3.91016 2.76632 4.30826C1.95191 4.52738 1.3105 5.17292 1.0928 5.99262C0.697266 7.47838 0.697266 10.5783 0.697266 10.5783C0.697266 10.5783 0.697266 13.6782 1.0928 15.1639C1.3105 15.9836 1.95191 16.6023 2.76632 16.8214C4.24251 17.2195 10.1617 17.2195 10.1617 17.2195C10.1617 17.2195 16.0809 17.2195 17.5571 16.8214C18.3715 16.6023 19.0129 15.9836 19.2306 15.1639C19.6261 13.6782 19.6261 10.5783 19.6261 10.5783C19.6261 10.5783 19.6261 7.47838 19.2306 5.99262ZM8.22578 13.3928V7.7638L13.1731 10.5783L8.22578 13.3928Z" fill="#00B5E5"/>
</g>
<defs>
<clipPath id="clip0_267_75">
<rect width="19.964" height="19.964" fill="white" transform="translate(0.179688 0.582764)"/>
</clipPath>
</defs>
</svg>
